<mxfile host="Electron" agent="Mozilla/5.0 (Windows NT 10.0; Win64; x64) AppleWebKit/537.36 (KHTML, like Gecko) draw.io/24.7.8 Chrome/128.0.6613.36 Electron/32.0.1 Safari/537.36" version="24.7.8">
  <diagram name="Page-1" id="868TZs-SnSWM6eIBNUI0">
    <mxGraphModel dx="441" dy="272" grid="1" gridSize="10" guides="1" tooltips="1" connect="1" arrows="1" fold="1" page="1" pageScale="1" pageWidth="1169" pageHeight="827" math="0" shadow="0">
      <root>
        <mxCell id="0" />
        <mxCell id="1" parent="0" />
        <mxCell id="KzDIzzD1oaYgctFefPa4-23" value="&lt;font style=&quot;font-size: 16px;&quot;&gt;70 cycles&lt;/font&gt;" style="text;html=1;align=center;verticalAlign=middle;resizable=0;points=[];autosize=1;strokeColor=none;fillColor=none;" vertex="1" parent="1">
          <mxGeometry x="660" y="440" width="90" height="30" as="geometry" />
        </mxCell>
        <mxCell id="KzDIzzD1oaYgctFefPa4-26" value="&lt;font style=&quot;font-size: 16px;&quot;&gt;25 cycles&lt;/font&gt;" style="text;html=1;align=center;verticalAlign=middle;resizable=0;points=[];autosize=1;strokeColor=none;fillColor=none;" vertex="1" parent="1">
          <mxGeometry x="660" y="250" width="90" height="30" as="geometry" />
        </mxCell>
        <mxCell id="KzDIzzD1oaYgctFefPa4-17" style="edgeStyle=orthogonalEdgeStyle;rounded=0;orthogonalLoop=1;jettySize=auto;html=1;exitX=1;exitY=0.5;exitDx=0;exitDy=0;entryX=0;entryY=0.5;entryDx=0;entryDy=0;" edge="1" parent="1" source="KzDIzzD1oaYgctFefPa4-1" target="KzDIzzD1oaYgctFefPa4-2">
          <mxGeometry relative="1" as="geometry" />
        </mxCell>
        <mxCell id="KzDIzzD1oaYgctFefPa4-20" style="edgeStyle=orthogonalEdgeStyle;rounded=0;orthogonalLoop=1;jettySize=auto;html=1;exitX=0;exitY=0.5;exitDx=0;exitDy=0;endArrow=none;endFill=0;startArrow=classic;startFill=1;" edge="1" parent="1" source="KzDIzzD1oaYgctFefPa4-1">
          <mxGeometry relative="1" as="geometry">
            <mxPoint x="240" y="280" as="targetPoint" />
          </mxGeometry>
        </mxCell>
        <mxCell id="KzDIzzD1oaYgctFefPa4-1" value="&lt;font color=&quot;#00cc00&quot; style=&quot;font-size: 20px;&quot;&gt;HW&lt;/font&gt;&lt;div style=&quot;font-size: 20px;&quot;&gt;&lt;font color=&quot;#ff0000&quot; style=&quot;font-size: 20px;&quot;&gt;LR&lt;/font&gt;&lt;/div&gt;" style="ellipse;whiteSpace=wrap;html=1;" vertex="1" parent="1">
          <mxGeometry x="280" y="240" width="120" height="80" as="geometry" />
        </mxCell>
        <mxCell id="KzDIzzD1oaYgctFefPa4-18" style="edgeStyle=orthogonalEdgeStyle;rounded=0;orthogonalLoop=1;jettySize=auto;html=1;exitX=1;exitY=0.5;exitDx=0;exitDy=0;" edge="1" parent="1" source="KzDIzzD1oaYgctFefPa4-2" target="KzDIzzD1oaYgctFefPa4-3">
          <mxGeometry relative="1" as="geometry">
            <mxPoint x="682" y="280" as="sourcePoint" />
          </mxGeometry>
        </mxCell>
        <mxCell id="KzDIzzD1oaYgctFefPa4-2" value="&lt;font color=&quot;#ffd814&quot; style=&quot;font-size: 20px;&quot;&gt;HW&lt;/font&gt;&lt;div style=&quot;font-size: 20px;&quot;&gt;&lt;font color=&quot;#ff0000&quot; style=&quot;font-size: 20px;&quot;&gt;LR&lt;/font&gt;&lt;/div&gt;" style="ellipse;whiteSpace=wrap;html=1;" vertex="1" parent="1">
          <mxGeometry x="520" y="240" width="120" height="80" as="geometry" />
        </mxCell>
        <mxCell id="KzDIzzD1oaYgctFefPa4-19" style="edgeStyle=orthogonalEdgeStyle;rounded=0;orthogonalLoop=1;jettySize=auto;html=1;exitX=0.5;exitY=1;exitDx=0;exitDy=0;entryX=0.5;entryY=0;entryDx=0;entryDy=0;" edge="1" parent="1" source="KzDIzzD1oaYgctFefPa4-3" target="KzDIzzD1oaYgctFefPa4-4">
          <mxGeometry relative="1" as="geometry" />
        </mxCell>
        <mxCell id="KzDIzzD1oaYgctFefPa4-3" value="&lt;font color=&quot;#ff0000&quot; style=&quot;font-size: 20px;&quot;&gt;HW&lt;/font&gt;&lt;div style=&quot;font-size: 20px;&quot;&gt;&lt;font color=&quot;#ff0000&quot; style=&quot;font-size: 20px;&quot;&gt;LR&lt;/font&gt;&lt;/div&gt;" style="ellipse;whiteSpace=wrap;html=1;" vertex="1" parent="1">
          <mxGeometry x="762" y="240" width="120" height="80" as="geometry" />
        </mxCell>
        <mxCell id="KzDIzzD1oaYgctFefPa4-14" style="edgeStyle=orthogonalEdgeStyle;rounded=0;orthogonalLoop=1;jettySize=auto;html=1;exitX=0;exitY=0.5;exitDx=0;exitDy=0;entryX=1;entryY=0.5;entryDx=0;entryDy=0;" edge="1" parent="1" source="KzDIzzD1oaYgctFefPa4-4" target="KzDIzzD1oaYgctFefPa4-5">
          <mxGeometry relative="1" as="geometry">
            <mxPoint x="682" y="440" as="targetPoint" />
          </mxGeometry>
        </mxCell>
        <mxCell id="KzDIzzD1oaYgctFefPa4-4" value="&lt;font color=&quot;#ff0000&quot; style=&quot;font-size: 20px;&quot;&gt;HW&lt;/font&gt;&lt;div style=&quot;font-size: 20px;&quot;&gt;&lt;font color=&quot;#00cc00&quot; style=&quot;font-size: 20px;&quot;&gt;LR&lt;/font&gt;&lt;/div&gt;" style="ellipse;whiteSpace=wrap;html=1;" vertex="1" parent="1">
          <mxGeometry x="762" y="400" width="120" height="80" as="geometry" />
        </mxCell>
        <mxCell id="KzDIzzD1oaYgctFefPa4-15" style="edgeStyle=orthogonalEdgeStyle;rounded=0;orthogonalLoop=1;jettySize=auto;html=1;exitX=0;exitY=0.5;exitDx=0;exitDy=0;entryX=1;entryY=0.5;entryDx=0;entryDy=0;" edge="1" parent="1" source="KzDIzzD1oaYgctFefPa4-5" target="KzDIzzD1oaYgctFefPa4-6">
          <mxGeometry relative="1" as="geometry" />
        </mxCell>
        <mxCell id="KzDIzzD1oaYgctFefPa4-5" value="&lt;font color=&quot;#ff0000&quot; style=&quot;font-size: 20px;&quot;&gt;HW&lt;/font&gt;&lt;div style=&quot;font-size: 20px;&quot;&gt;&lt;font color=&quot;#ffd814&quot; style=&quot;font-size: 20px;&quot;&gt;LR&lt;/font&gt;&lt;/div&gt;" style="ellipse;whiteSpace=wrap;html=1;" vertex="1" parent="1">
          <mxGeometry x="520" y="400" width="120" height="80" as="geometry" />
        </mxCell>
        <mxCell id="KzDIzzD1oaYgctFefPa4-16" style="edgeStyle=orthogonalEdgeStyle;rounded=0;orthogonalLoop=1;jettySize=auto;html=1;exitX=0.5;exitY=0;exitDx=0;exitDy=0;entryX=0.5;entryY=1;entryDx=0;entryDy=0;" edge="1" parent="1" source="KzDIzzD1oaYgctFefPa4-6" target="KzDIzzD1oaYgctFefPa4-1">
          <mxGeometry relative="1" as="geometry" />
        </mxCell>
        <mxCell id="KzDIzzD1oaYgctFefPa4-6" value="&lt;font color=&quot;#ff0000&quot; style=&quot;font-size: 20px;&quot;&gt;HW&lt;/font&gt;&lt;div style=&quot;font-size: 20px;&quot;&gt;&lt;font color=&quot;#ff0000&quot; style=&quot;font-size: 20px;&quot;&gt;LR&lt;/font&gt;&lt;/div&gt;" style="ellipse;whiteSpace=wrap;html=1;" vertex="1" parent="1">
          <mxGeometry x="280" y="400" width="120" height="80" as="geometry" />
        </mxCell>
        <mxCell id="KzDIzzD1oaYgctFefPa4-8" style="edgeStyle=orthogonalEdgeStyle;rounded=0;orthogonalLoop=1;jettySize=auto;html=1;exitX=1;exitY=0;exitDx=0;exitDy=0;entryX=0;entryY=0;entryDx=0;entryDy=0;curved=1;" edge="1" parent="1" source="KzDIzzD1oaYgctFefPa4-1" target="KzDIzzD1oaYgctFefPa4-1">
          <mxGeometry relative="1" as="geometry">
            <Array as="points">
              <mxPoint x="382" y="200" />
              <mxPoint x="298" y="200" />
            </Array>
          </mxGeometry>
        </mxCell>
        <mxCell id="KzDIzzD1oaYgctFefPa4-9" style="edgeStyle=orthogonalEdgeStyle;rounded=0;orthogonalLoop=1;jettySize=auto;html=1;exitX=1;exitY=0;exitDx=0;exitDy=0;entryX=0;entryY=0;entryDx=0;entryDy=0;curved=1;" edge="1" parent="1">
          <mxGeometry relative="1" as="geometry">
            <mxPoint x="622" y="252" as="sourcePoint" />
            <mxPoint x="538" y="252" as="targetPoint" />
            <Array as="points">
              <mxPoint x="622" y="200" />
              <mxPoint x="538" y="200" />
            </Array>
          </mxGeometry>
        </mxCell>
        <mxCell id="KzDIzzD1oaYgctFefPa4-10" style="edgeStyle=orthogonalEdgeStyle;rounded=0;orthogonalLoop=1;jettySize=auto;html=1;exitX=1;exitY=0;exitDx=0;exitDy=0;entryX=0;entryY=0;entryDx=0;entryDy=0;curved=1;horizontal=1;verticalAlign=middle;" edge="1" parent="1">
          <mxGeometry relative="1" as="geometry">
            <mxPoint x="622" y="470" as="sourcePoint" />
            <mxPoint x="538" y="470" as="targetPoint" />
            <Array as="points">
              <mxPoint x="622" y="522" />
              <mxPoint x="538" y="522" />
            </Array>
          </mxGeometry>
        </mxCell>
        <mxCell id="KzDIzzD1oaYgctFefPa4-12" style="edgeStyle=orthogonalEdgeStyle;rounded=0;orthogonalLoop=1;jettySize=auto;html=1;exitX=1;exitY=0;exitDx=0;exitDy=0;entryX=0;entryY=0;entryDx=0;entryDy=0;curved=1;horizontal=1;verticalAlign=middle;" edge="1" parent="1">
          <mxGeometry relative="1" as="geometry">
            <mxPoint x="866" y="470" as="sourcePoint" />
            <mxPoint x="782" y="470" as="targetPoint" />
            <Array as="points">
              <mxPoint x="866" y="522" />
              <mxPoint x="782" y="522" />
            </Array>
          </mxGeometry>
        </mxCell>
        <mxCell id="KzDIzzD1oaYgctFefPa4-13" value="&lt;font style=&quot;font-size: 16px;&quot;&gt;&amp;lt;70 cycles&lt;/font&gt;" style="text;html=1;align=center;verticalAlign=middle;resizable=0;points=[];autosize=1;strokeColor=none;fillColor=none;" vertex="1" parent="1">
          <mxGeometry x="772" y="520" width="100" height="30" as="geometry" />
        </mxCell>
        <mxCell id="KzDIzzD1oaYgctFefPa4-21" value="&lt;font style=&quot;font-size: 16px;&quot;&gt;rst_n == 1&#39;b0&lt;/font&gt;" style="text;html=1;align=center;verticalAlign=middle;resizable=0;points=[];autosize=1;strokeColor=none;fillColor=none;" vertex="1" parent="1">
          <mxGeometry x="130" y="265" width="120" height="30" as="geometry" />
        </mxCell>
        <mxCell id="KzDIzzD1oaYgctFefPa4-22" value="&lt;font style=&quot;font-size: 16px;&quot;&gt;1 cycle&lt;/font&gt;" style="text;html=1;align=center;verticalAlign=middle;resizable=0;points=[];autosize=1;strokeColor=none;fillColor=none;" vertex="1" parent="1">
          <mxGeometry x="822" y="350" width="70" height="30" as="geometry" />
        </mxCell>
        <mxCell id="KzDIzzD1oaYgctFefPa4-24" value="&lt;font style=&quot;font-size: 16px;&quot;&gt;25 cycles&lt;/font&gt;" style="text;html=1;align=center;verticalAlign=middle;resizable=0;points=[];autosize=1;strokeColor=none;fillColor=none;" vertex="1" parent="1">
          <mxGeometry x="415" y="440" width="90" height="30" as="geometry" />
        </mxCell>
        <mxCell id="KzDIzzD1oaYgctFefPa4-25" value="&lt;font style=&quot;font-size: 16px;&quot;&gt;1 cycle&lt;/font&gt;" style="text;html=1;align=center;verticalAlign=middle;resizable=0;points=[];autosize=1;strokeColor=none;fillColor=none;" vertex="1" parent="1">
          <mxGeometry x="270" y="350" width="70" height="30" as="geometry" />
        </mxCell>
        <mxCell id="KzDIzzD1oaYgctFefPa4-27" value="&lt;font style=&quot;font-size: 16px;&quot;&gt;&amp;gt;= 70 cycles &amp;amp;&lt;br&gt;lr_has_car == 1&lt;/font&gt;" style="text;html=1;align=center;verticalAlign=middle;resizable=0;points=[];autosize=1;strokeColor=none;fillColor=none;" vertex="1" parent="1">
          <mxGeometry x="395" y="230" width="130" height="50" as="geometry" />
        </mxCell>
        <mxCell id="KzDIzzD1oaYgctFefPa4-28" value="&lt;font style=&quot;font-size: 16px;&quot;&gt;&amp;lt;25 cycles&lt;/font&gt;" style="text;html=1;align=center;verticalAlign=middle;resizable=0;points=[];autosize=1;strokeColor=none;fillColor=none;" vertex="1" parent="1">
          <mxGeometry x="530" y="520" width="100" height="30" as="geometry" />
        </mxCell>
        <mxCell id="KzDIzzD1oaYgctFefPa4-29" value="&lt;font style=&quot;font-size: 16px;&quot;&gt;&amp;lt;25 cycles&lt;/font&gt;" style="text;html=1;align=center;verticalAlign=middle;resizable=0;points=[];autosize=1;strokeColor=none;fillColor=none;" vertex="1" parent="1">
          <mxGeometry x="530" y="170" width="100" height="30" as="geometry" />
        </mxCell>
        <mxCell id="KzDIzzD1oaYgctFefPa4-30" value="&lt;font style=&quot;font-size: 16px;&quot;&gt;&amp;lt; 70 cycles |&lt;br&gt;lr_has_car == 0&lt;/font&gt;" style="text;html=1;align=center;verticalAlign=middle;resizable=0;points=[];autosize=1;strokeColor=none;fillColor=none;" vertex="1" parent="1">
          <mxGeometry x="275" y="150" width="130" height="50" as="geometry" />
        </mxCell>
        <mxCell id="KzDIzzD1oaYgctFefPa4-99" style="edgeStyle=orthogonalEdgeStyle;rounded=0;orthogonalLoop=1;jettySize=auto;html=1;exitX=0;exitY=0.05416666666666667;exitDx=0;exitDy=3;exitPerimeter=0;fontFamily=Helvetica;fontSize=12;fontColor=default;startArrow=none;startFill=0;endArrow=none;endFill=0;" edge="1" parent="1" source="KzDIzzD1oaYgctFefPa4-31">
          <mxGeometry relative="1" as="geometry">
            <mxPoint x="400" y="900" as="targetPoint" />
          </mxGeometry>
        </mxCell>
        <mxCell id="KzDIzzD1oaYgctFefPa4-102" style="edgeStyle=orthogonalEdgeStyle;rounded=0;orthogonalLoop=1;jettySize=auto;html=1;exitX=0;exitY=0.48750000000000004;exitDx=0;exitDy=3;exitPerimeter=0;fontFamily=Helvetica;fontSize=12;fontColor=default;endArrow=none;endFill=0;" edge="1" parent="1" source="KzDIzzD1oaYgctFefPa4-31">
          <mxGeometry relative="1" as="geometry">
            <mxPoint x="394.38461538461536" y="951.7307692307693" as="targetPoint" />
          </mxGeometry>
        </mxCell>
        <mxCell id="KzDIzzD1oaYgctFefPa4-31" value="&lt;div&gt;8bit&lt;/div&gt;8x1&lt;br&gt;Mux" style="shadow=0;dashed=0;align=center;html=1;strokeWidth=1;shape=mxgraph.electrical.abstract.mux2;whiteSpace=wrap;selectorPins=3;overflow=visible;fillOpacity=100;labelPadding=0;noLabel=0;snapToPoint=0;metaEdit=0;backgroundOutline=0;movableLabel=1;comic=0;enumerate=0;" vertex="1" parent="1">
          <mxGeometry x="440" y="890.3" width="80" height="120" as="geometry" />
        </mxCell>
        <mxCell id="KzDIzzD1oaYgctFefPa4-87" style="edgeStyle=orthogonalEdgeStyle;rounded=0;orthogonalLoop=1;jettySize=auto;html=1;exitX=0.25;exitY=1;exitDx=0;exitDy=0;fontFamily=Helvetica;fontSize=12;fontColor=default;startArrow=classic;startFill=1;endArrow=none;endFill=0;" edge="1" parent="1" source="KzDIzzD1oaYgctFefPa4-32">
          <mxGeometry relative="1" as="geometry">
            <mxPoint x="240" y="990" as="targetPoint" />
            <Array as="points">
              <mxPoint x="325" y="990" />
            </Array>
          </mxGeometry>
        </mxCell>
        <mxCell id="KzDIzzD1oaYgctFefPa4-88" style="edgeStyle=orthogonalEdgeStyle;rounded=0;orthogonalLoop=1;jettySize=auto;html=1;exitX=0.75;exitY=1;exitDx=0;exitDy=0;fontFamily=Helvetica;fontSize=12;fontColor=default;endArrow=none;endFill=0;startArrow=classic;startFill=1;" edge="1" parent="1" source="KzDIzzD1oaYgctFefPa4-32">
          <mxGeometry relative="1" as="geometry">
            <mxPoint x="365" y="990" as="targetPoint" />
          </mxGeometry>
        </mxCell>
        <mxCell id="KzDIzzD1oaYgctFefPa4-32" value="8bit&lt;br&gt;a==b" style="rounded=1;whiteSpace=wrap;html=1;shadow=0;dashed=0;strokeColor=default;strokeWidth=1;align=center;verticalAlign=middle;fontFamily=Helvetica;fontSize=12;fontColor=default;fillColor=default;" vertex="1" parent="1">
          <mxGeometry x="305" y="920" width="80" height="45" as="geometry" />
        </mxCell>
        <mxCell id="KzDIzzD1oaYgctFefPa4-113" style="edgeStyle=orthogonalEdgeStyle;rounded=0;orthogonalLoop=1;jettySize=auto;html=1;exitX=0;exitY=0.6357142857142857;exitDx=0;exitDy=3;exitPerimeter=0;fontFamily=Helvetica;fontSize=12;fontColor=default;endArrow=none;endFill=0;startArrow=classic;startFill=1;" edge="1" parent="1" source="KzDIzzD1oaYgctFefPa4-36">
          <mxGeometry relative="1" as="geometry">
            <mxPoint x="240" y="869.952380952381" as="targetPoint" />
          </mxGeometry>
        </mxCell>
        <mxCell id="KzDIzzD1oaYgctFefPa4-36" value="8bit&lt;div&gt;2x1&lt;br&gt;Mux&lt;/div&gt;" style="shadow=0;dashed=0;align=center;html=1;strokeWidth=1;shape=mxgraph.electrical.abstract.mux2;whiteSpace=wrap;strokeColor=default;verticalAlign=middle;fontFamily=Helvetica;fontSize=12;fontColor=default;fillColor=default;" vertex="1" parent="1">
          <mxGeometry x="310" y="800" width="70" height="105" as="geometry" />
        </mxCell>
        <mxCell id="KzDIzzD1oaYgctFefPa4-41" style="edgeStyle=orthogonalEdgeStyle;rounded=0;orthogonalLoop=1;jettySize=auto;html=1;exitX=0.5;exitY=0;exitDx=0;exitDy=0;entryX=0.35714285714285715;entryY=1;entryDx=10;entryDy=0;entryPerimeter=0;fontFamily=Helvetica;fontSize=12;fontColor=default;" edge="1" parent="1" source="KzDIzzD1oaYgctFefPa4-32" target="KzDIzzD1oaYgctFefPa4-36">
          <mxGeometry relative="1" as="geometry" />
        </mxCell>
        <mxCell id="KzDIzzD1oaYgctFefPa4-44" style="edgeStyle=orthogonalEdgeStyle;rounded=0;orthogonalLoop=1;jettySize=auto;html=1;exitX=1;exitY=0.25;exitDx=0;exitDy=0;exitPerimeter=0;fontFamily=Helvetica;fontSize=12;fontColor=default;entryX=0.25;entryY=1;entryDx=0;entryDy=0;" edge="1" parent="1" source="KzDIzzD1oaYgctFefPa4-54" target="KzDIzzD1oaYgctFefPa4-49">
          <mxGeometry relative="1" as="geometry">
            <mxPoint x="260" y="1080" as="targetPoint" />
            <Array as="points">
              <mxPoint x="730" y="790" />
              <mxPoint x="240" y="790" />
              <mxPoint x="240" y="1200" />
              <mxPoint x="325" y="1200" />
            </Array>
          </mxGeometry>
        </mxCell>
        <mxCell id="KzDIzzD1oaYgctFefPa4-95" style="edgeStyle=orthogonalEdgeStyle;rounded=0;orthogonalLoop=1;jettySize=auto;html=1;exitX=0.75;exitY=1;exitDx=0;exitDy=0;fontFamily=Helvetica;fontSize=12;fontColor=default;startArrow=classic;startFill=1;endArrow=none;endFill=0;" edge="1" parent="1" source="KzDIzzD1oaYgctFefPa4-49">
          <mxGeometry relative="1" as="geometry">
            <mxPoint x="365.20000000000005" y="1200" as="targetPoint" />
          </mxGeometry>
        </mxCell>
        <mxCell id="KzDIzzD1oaYgctFefPa4-49" value="8bit&lt;br&gt;a==b" style="rounded=1;whiteSpace=wrap;html=1;shadow=0;dashed=0;strokeColor=default;strokeWidth=1;align=center;verticalAlign=middle;fontFamily=Helvetica;fontSize=12;fontColor=default;fillColor=default;" vertex="1" parent="1">
          <mxGeometry x="305" y="1130" width="80" height="45" as="geometry" />
        </mxCell>
        <mxCell id="KzDIzzD1oaYgctFefPa4-112" style="edgeStyle=orthogonalEdgeStyle;rounded=0;orthogonalLoop=1;jettySize=auto;html=1;exitX=0;exitY=0.6357142857142857;exitDx=0;exitDy=3;exitPerimeter=0;fontFamily=Helvetica;fontSize=12;fontColor=default;startArrow=classic;startFill=1;endArrow=none;endFill=0;" edge="1" parent="1" source="KzDIzzD1oaYgctFefPa4-50">
          <mxGeometry relative="1" as="geometry">
            <mxPoint x="240" y="1079.952380952381" as="targetPoint" />
          </mxGeometry>
        </mxCell>
        <mxCell id="KzDIzzD1oaYgctFefPa4-50" value="8bit&lt;div&gt;2x1&lt;br&gt;Mux&lt;/div&gt;" style="shadow=0;dashed=0;align=center;html=1;strokeWidth=1;shape=mxgraph.electrical.abstract.mux2;whiteSpace=wrap;strokeColor=default;verticalAlign=middle;fontFamily=Helvetica;fontSize=12;fontColor=default;fillColor=default;" vertex="1" parent="1">
          <mxGeometry x="310" y="1010" width="70" height="105" as="geometry" />
        </mxCell>
        <mxCell id="KzDIzzD1oaYgctFefPa4-51" style="edgeStyle=orthogonalEdgeStyle;rounded=0;orthogonalLoop=1;jettySize=auto;html=1;exitX=0.5;exitY=0;exitDx=0;exitDy=0;entryX=0.35714285714285715;entryY=1;entryDx=10;entryDy=0;entryPerimeter=0;fontFamily=Helvetica;fontSize=12;fontColor=default;" edge="1" parent="1" source="KzDIzzD1oaYgctFefPa4-49" target="KzDIzzD1oaYgctFefPa4-50">
          <mxGeometry relative="1" as="geometry" />
        </mxCell>
        <mxCell id="KzDIzzD1oaYgctFefPa4-81" style="edgeStyle=orthogonalEdgeStyle;rounded=0;orthogonalLoop=1;jettySize=auto;html=1;exitX=1;exitY=0.25;exitDx=0;exitDy=0;exitPerimeter=0;fontFamily=Helvetica;fontSize=12;fontColor=default;endArrow=none;endFill=0;" edge="1" parent="1" source="KzDIzzD1oaYgctFefPa4-54">
          <mxGeometry relative="1" as="geometry">
            <mxPoint x="755.96" y="967.6400000000001" as="targetPoint" />
          </mxGeometry>
        </mxCell>
        <mxCell id="KzDIzzD1oaYgctFefPa4-54" value="" style="verticalLabelPosition=bottom;shadow=0;dashed=0;align=center;html=1;verticalAlign=top;shape=stencil(rVXBjoMgEP0aj7uxEG2vu269N9kfQEuVFIEgte3fL4hNiorauokeeAPz3gwzQwCTukQCByBEtcC5CuBPAECDJEEZ1TDQltKCu9AuGaqwRfQf/t7b0ykl4iOlXNg9tZL8jK/kqLrDhJVYEmWtV4ttwtYj3Afhl0bNB5OcM6Z1EM5qx/Jk184RYaovxXgWmqTCCkuLdopvzurerT5BZIEApK9Q7d+g2r5HdVhAtVkYFUw04ssuTDKUnwvJL+w4KlCa2hiUQneRsauoH/2EHg8rTE5c4gk5J0KprbGJpApkqm9geJgr3mDfjflEux4oYdgb9jIXUyLi9SKWuXBF7NanouvsVbnoRRJNdtC4DPj/+ZzpY417qk4P2rl6VfhmegxRUjBLl2Nmuv4xUp1R1zzty7hSvHKbMHJvYEb4Qu7DIu7tC9wjiQVxod+h796oGEyEFrWvVwv8AQ==);strokeColor=default;strokeWidth=1;fontFamily=Helvetica;fontSize=12;fontColor=default;fillColor=default;noLabel=0;movableLabel=0;" vertex="1" parent="1">
          <mxGeometry x="630" y="947.5" width="100" height="80" as="geometry" />
        </mxCell>
        <mxCell id="KzDIzzD1oaYgctFefPa4-109" style="edgeStyle=orthogonalEdgeStyle;rounded=0;orthogonalLoop=1;jettySize=auto;html=1;exitX=0;exitY=0.5;exitDx=0;exitDy=0;fontFamily=Helvetica;fontSize=12;fontColor=default;startArrow=classic;startFill=1;endArrow=none;endFill=0;" edge="1" parent="1" source="KzDIzzD1oaYgctFefPa4-57">
          <mxGeometry relative="1" as="geometry">
            <mxPoint x="240" y="825.1904761904761" as="targetPoint" />
          </mxGeometry>
        </mxCell>
        <mxCell id="KzDIzzD1oaYgctFefPa4-57" value="8bit +1" style="rounded=1;whiteSpace=wrap;html=1;shadow=0;dashed=0;strokeColor=default;strokeWidth=1;align=center;verticalAlign=middle;fontFamily=Helvetica;fontSize=12;fontColor=default;fillColor=default;" vertex="1" parent="1">
          <mxGeometry x="265" y="805" width="30" height="40" as="geometry" />
        </mxCell>
        <mxCell id="KzDIzzD1oaYgctFefPa4-111" style="edgeStyle=orthogonalEdgeStyle;rounded=0;orthogonalLoop=1;jettySize=auto;html=1;exitX=0;exitY=0.5;exitDx=0;exitDy=0;fontFamily=Helvetica;fontSize=12;fontColor=default;endArrow=none;endFill=0;startArrow=classic;startFill=1;" edge="1" parent="1" source="KzDIzzD1oaYgctFefPa4-62">
          <mxGeometry relative="1" as="geometry">
            <mxPoint x="240" y="1035.1904761904761" as="targetPoint" />
          </mxGeometry>
        </mxCell>
        <mxCell id="KzDIzzD1oaYgctFefPa4-62" value="8bit +1" style="rounded=1;whiteSpace=wrap;html=1;shadow=0;dashed=0;strokeColor=default;strokeWidth=1;align=center;verticalAlign=middle;fontFamily=Helvetica;fontSize=12;fontColor=default;fillColor=default;" vertex="1" parent="1">
          <mxGeometry x="265" y="1015" width="30" height="40" as="geometry" />
        </mxCell>
        <mxCell id="KzDIzzD1oaYgctFefPa4-65" value="cnt" style="text;html=1;align=center;verticalAlign=middle;resizable=0;points=[];autosize=1;strokeColor=none;fillColor=none;fontFamily=Helvetica;fontSize=12;fontColor=default;" vertex="1" parent="1">
          <mxGeometry x="747" y="950.5" width="40" height="30" as="geometry" />
        </mxCell>
        <mxCell id="KzDIzzD1oaYgctFefPa4-66" value="&lt;font color=&quot;#3333ff&quot;&gt;clk&lt;/font&gt;" style="text;html=1;align=center;verticalAlign=middle;resizable=0;points=[];autosize=1;strokeColor=none;fillColor=none;fontFamily=Helvetica;fontSize=12;fontColor=default;" vertex="1" parent="1">
          <mxGeometry x="600" y="992" width="40" height="30" as="geometry" />
        </mxCell>
        <mxCell id="KzDIzzD1oaYgctFefPa4-67" value="8bit&lt;div&gt;2x1&lt;br&gt;Mux&lt;/div&gt;" style="shadow=0;dashed=0;align=center;html=1;strokeWidth=1;shape=mxgraph.electrical.abstract.mux2;whiteSpace=wrap;strokeColor=default;verticalAlign=middle;fontFamily=Helvetica;fontSize=12;fontColor=default;fillColor=default;" vertex="1" parent="1">
          <mxGeometry x="542" y="920" width="70" height="105" as="geometry" />
        </mxCell>
        <mxCell id="KzDIzzD1oaYgctFefPa4-70" style="edgeStyle=orthogonalEdgeStyle;rounded=0;orthogonalLoop=1;jettySize=auto;html=1;exitX=0.25;exitY=1;exitDx=0;exitDy=0;fontFamily=Helvetica;fontSize=12;fontColor=default;startArrow=classic;startFill=1;endArrow=none;endFill=0;" edge="1" parent="1" source="KzDIzzD1oaYgctFefPa4-69">
          <mxGeometry relative="1" as="geometry">
            <mxPoint x="592.4000000000001" y="1164" as="targetPoint" />
          </mxGeometry>
        </mxCell>
        <mxCell id="KzDIzzD1oaYgctFefPa4-71" style="edgeStyle=orthogonalEdgeStyle;rounded=0;orthogonalLoop=1;jettySize=auto;html=1;exitX=0.75;exitY=1;exitDx=0;exitDy=0;fontFamily=Helvetica;fontSize=12;fontColor=default;startArrow=classic;startFill=1;endArrow=none;endFill=0;" edge="1" parent="1" source="KzDIzzD1oaYgctFefPa4-69">
          <mxGeometry relative="1" as="geometry">
            <mxPoint x="617.5999999999999" y="1164" as="targetPoint" />
          </mxGeometry>
        </mxCell>
        <mxCell id="KzDIzzD1oaYgctFefPa4-69" value="3bit&lt;br&gt;a==b" style="rounded=1;whiteSpace=wrap;html=1;shadow=0;dashed=0;strokeColor=default;strokeWidth=1;align=center;verticalAlign=middle;fontFamily=Helvetica;fontSize=12;fontColor=default;fillColor=default;" vertex="1" parent="1">
          <mxGeometry x="580" y="1104" width="50" height="30" as="geometry" />
        </mxCell>
        <mxCell id="KzDIzzD1oaYgctFefPa4-72" value="&lt;font style=&quot;font-size: 7px;&quot;&gt;next_state&lt;/font&gt;" style="text;html=1;align=center;verticalAlign=middle;resizable=0;points=[];autosize=1;strokeColor=none;fillColor=none;fontFamily=Helvetica;fontSize=12;fontColor=default;" vertex="1" parent="1">
          <mxGeometry x="560" y="1154" width="60" height="30" as="geometry" />
        </mxCell>
        <mxCell id="KzDIzzD1oaYgctFefPa4-74" value="&lt;font style=&quot;font-size: 7px;&quot;&gt;state&lt;/font&gt;" style="text;html=1;align=center;verticalAlign=middle;resizable=0;points=[];autosize=1;strokeColor=none;fillColor=none;fontFamily=Helvetica;fontSize=12;fontColor=default;" vertex="1" parent="1">
          <mxGeometry x="600" y="1154" width="40" height="30" as="geometry" />
        </mxCell>
        <mxCell id="KzDIzzD1oaYgctFefPa4-75" value="" style="verticalLabelPosition=bottom;shadow=0;dashed=0;align=center;html=1;verticalAlign=top;shape=mxgraph.electrical.logic_gates.logic_gate;operation=or;strokeColor=default;strokeWidth=1;fontFamily=Helvetica;fontSize=12;fontColor=default;fillColor=default;rotation=-90;" vertex="1" parent="1">
          <mxGeometry x="552" y="1034" width="50" height="30" as="geometry" />
        </mxCell>
        <mxCell id="KzDIzzD1oaYgctFefPa4-76" style="edgeStyle=orthogonalEdgeStyle;rounded=0;orthogonalLoop=1;jettySize=auto;html=1;exitX=0.5;exitY=0;exitDx=0;exitDy=0;entryX=0;entryY=0.75;entryDx=0;entryDy=0;entryPerimeter=0;fontFamily=Helvetica;fontSize=12;fontColor=default;" edge="1" parent="1" source="KzDIzzD1oaYgctFefPa4-69" target="KzDIzzD1oaYgctFefPa4-75">
          <mxGeometry relative="1" as="geometry">
            <Array as="points">
              <mxPoint x="605" y="1094" />
              <mxPoint x="585" y="1094" />
            </Array>
          </mxGeometry>
        </mxCell>
        <mxCell id="KzDIzzD1oaYgctFefPa4-77" value="" style="verticalLabelPosition=bottom;shadow=0;dashed=0;align=center;html=1;verticalAlign=top;shape=mxgraph.electrical.logic_gates.inverter_2;strokeColor=default;strokeWidth=1;fontFamily=Helvetica;fontSize=12;fontColor=default;fillColor=default;rotation=-90;" vertex="1" parent="1">
          <mxGeometry x="554.5" y="1072" width="30" height="20" as="geometry" />
        </mxCell>
        <mxCell id="KzDIzzD1oaYgctFefPa4-78" value="&lt;font style=&quot;font-size: 7px;&quot;&gt;rst_n&lt;/font&gt;" style="text;html=1;align=center;verticalAlign=middle;resizable=0;points=[];autosize=1;strokeColor=none;fillColor=none;fontFamily=Helvetica;fontSize=12;fontColor=default;" vertex="1" parent="1">
          <mxGeometry x="549.5" y="1084" width="40" height="30" as="geometry" />
        </mxCell>
        <mxCell id="KzDIzzD1oaYgctFefPa4-79" style="edgeStyle=orthogonalEdgeStyle;rounded=0;orthogonalLoop=1;jettySize=auto;html=1;exitX=1;exitY=0.5;exitDx=0;exitDy=-5;exitPerimeter=0;entryX=0;entryY=0.2119047619047619;entryDx=0;entryDy=3;entryPerimeter=0;fontFamily=Helvetica;fontSize=12;fontColor=default;endArrow=none;endFill=0;" edge="1" parent="1" source="KzDIzzD1oaYgctFefPa4-31" target="KzDIzzD1oaYgctFefPa4-67">
          <mxGeometry relative="1" as="geometry" />
        </mxCell>
        <mxCell id="KzDIzzD1oaYgctFefPa4-80" style="edgeStyle=orthogonalEdgeStyle;rounded=0;orthogonalLoop=1;jettySize=auto;html=1;exitX=1;exitY=0.5;exitDx=0;exitDy=-5;exitPerimeter=0;entryX=0;entryY=0.25;entryDx=0;entryDy=0;entryPerimeter=0;fontFamily=Helvetica;fontSize=12;fontColor=default;endArrow=none;endFill=0;" edge="1" parent="1" source="KzDIzzD1oaYgctFefPa4-67" target="KzDIzzD1oaYgctFefPa4-54">
          <mxGeometry relative="1" as="geometry" />
        </mxCell>
        <mxCell id="KzDIzzD1oaYgctFefPa4-82" value="&lt;font style=&quot;font-size: 10px;&quot;&gt;8&#39;d0&lt;/font&gt;" style="text;html=1;align=center;verticalAlign=middle;resizable=0;points=[];autosize=1;strokeColor=none;fillColor=none;fontFamily=Helvetica;fontSize=12;fontColor=default;" vertex="1" parent="1">
          <mxGeometry x="510" y="974.5" width="40" height="30" as="geometry" />
        </mxCell>
        <mxCell id="KzDIzzD1oaYgctFefPa4-92" value="&lt;font color=&quot;#00cc00&quot; style=&quot;font-size: 10px;&quot;&gt;greentime&lt;/font&gt;&lt;font color=&quot;#00cc00&quot; style=&quot;font-size: 5px;&quot;&gt;&lt;sub&gt;P&lt;/sub&gt;&lt;/font&gt;" style="text;html=1;align=center;verticalAlign=middle;resizable=0;points=[];autosize=1;strokeColor=none;fillColor=none;fontFamily=Helvetica;fontSize=12;fontColor=default;" vertex="1" parent="1">
          <mxGeometry x="330" y="980" width="70" height="30" as="geometry" />
        </mxCell>
        <mxCell id="KzDIzzD1oaYgctFefPa4-93" value="&lt;font color=&quot;#ffd814&quot; style=&quot;&quot;&gt;&lt;span style=&quot;font-size: 10px;&quot;&gt;yellowtime&lt;/span&gt;&lt;sub style=&quot;&quot;&gt;&lt;font style=&quot;font-size: 5px;&quot;&gt;P&lt;/font&gt;&lt;/sub&gt;&lt;/font&gt;" style="text;html=1;align=center;verticalAlign=middle;resizable=0;points=[];autosize=1;strokeColor=none;fillColor=none;fontFamily=Helvetica;fontSize=12;fontColor=default;" vertex="1" parent="1">
          <mxGeometry x="330" y="1190" width="70" height="30" as="geometry" />
        </mxCell>
        <mxCell id="KzDIzzD1oaYgctFefPa4-97" style="edgeStyle=orthogonalEdgeStyle;rounded=0;orthogonalLoop=1;jettySize=auto;html=1;exitX=0;exitY=0.3791666666666667;exitDx=0;exitDy=3;exitPerimeter=0;entryX=1;entryY=0.5;entryDx=0;entryDy=-5;entryPerimeter=0;fontFamily=Helvetica;fontSize=12;fontColor=default;endArrow=none;endFill=0;" edge="1" parent="1" source="KzDIzzD1oaYgctFefPa4-31" target="KzDIzzD1oaYgctFefPa4-36">
          <mxGeometry relative="1" as="geometry">
            <Array as="points">
              <mxPoint x="400" y="939" />
              <mxPoint x="400" y="848" />
            </Array>
          </mxGeometry>
        </mxCell>
        <mxCell id="KzDIzzD1oaYgctFefPa4-100" style="edgeStyle=orthogonalEdgeStyle;rounded=0;orthogonalLoop=1;jettySize=auto;html=1;exitX=0;exitY=0.1625;exitDx=0;exitDy=3;exitPerimeter=0;entryX=1;entryY=0.5;entryDx=0;entryDy=-5;entryPerimeter=0;fontFamily=Helvetica;fontSize=12;fontColor=default;endArrow=none;endFill=0;" edge="1" parent="1" source="KzDIzzD1oaYgctFefPa4-31" target="KzDIzzD1oaYgctFefPa4-50">
          <mxGeometry relative="1" as="geometry">
            <Array as="points">
              <mxPoint x="394" y="913" />
              <mxPoint x="394" y="1058" />
            </Array>
          </mxGeometry>
        </mxCell>
        <mxCell id="KzDIzzD1oaYgctFefPa4-103" value="&lt;font style=&quot;font-size: 10px;&quot;&gt;8&#39;d0&lt;/font&gt;" style="text;html=1;align=center;verticalAlign=middle;resizable=0;points=[];autosize=1;strokeColor=none;fillColor=none;fontFamily=Helvetica;fontSize=12;fontColor=default;" vertex="1" parent="1">
          <mxGeometry x="409" y="910" width="40" height="30" as="geometry" />
        </mxCell>
        <mxCell id="KzDIzzD1oaYgctFefPa4-104" value="&lt;font style=&quot;font-size: 10px;&quot;&gt;8&#39;d0&lt;/font&gt;" style="text;html=1;align=center;verticalAlign=middle;resizable=0;points=[];autosize=1;strokeColor=none;fillColor=none;fontFamily=Helvetica;fontSize=12;fontColor=default;" vertex="1" parent="1">
          <mxGeometry x="409" y="950" width="40" height="30" as="geometry" />
        </mxCell>
        <mxCell id="KzDIzzD1oaYgctFefPa4-105" value="&lt;font style=&quot;font-size: 10px;&quot;&gt;8&#39;d0&lt;/font&gt;" style="text;html=1;align=center;verticalAlign=middle;resizable=0;points=[];autosize=1;strokeColor=none;fillColor=none;fontFamily=Helvetica;fontSize=12;fontColor=default;" vertex="1" parent="1">
          <mxGeometry x="409" y="962" width="40" height="30" as="geometry" />
        </mxCell>
        <mxCell id="KzDIzzD1oaYgctFefPa4-106" value="&lt;font style=&quot;font-size: 10px;&quot;&gt;8&#39;d0&lt;/font&gt;" style="text;html=1;align=center;verticalAlign=middle;resizable=0;points=[];autosize=1;strokeColor=none;fillColor=none;fontFamily=Helvetica;fontSize=12;fontColor=default;" vertex="1" parent="1">
          <mxGeometry x="409" y="974.5" width="40" height="30" as="geometry" />
        </mxCell>
        <mxCell id="KzDIzzD1oaYgctFefPa4-107" style="edgeStyle=orthogonalEdgeStyle;rounded=0;orthogonalLoop=1;jettySize=auto;html=1;exitX=0.5;exitY=1;exitDx=0;exitDy=0;fontFamily=Helvetica;fontSize=12;fontColor=default;" edge="1" parent="1" source="KzDIzzD1oaYgctFefPa4-57" target="KzDIzzD1oaYgctFefPa4-57">
          <mxGeometry relative="1" as="geometry" />
        </mxCell>
        <mxCell id="KzDIzzD1oaYgctFefPa4-108" style="edgeStyle=orthogonalEdgeStyle;rounded=0;orthogonalLoop=1;jettySize=auto;html=1;exitX=1;exitY=0.5;exitDx=0;exitDy=0;entryX=0;entryY=0.2119047619047619;entryDx=0;entryDy=3;entryPerimeter=0;fontFamily=Helvetica;fontSize=12;fontColor=default;" edge="1" parent="1" source="KzDIzzD1oaYgctFefPa4-57" target="KzDIzzD1oaYgctFefPa4-36">
          <mxGeometry relative="1" as="geometry" />
        </mxCell>
        <mxCell id="KzDIzzD1oaYgctFefPa4-110" style="edgeStyle=orthogonalEdgeStyle;rounded=0;orthogonalLoop=1;jettySize=auto;html=1;exitX=1;exitY=0.5;exitDx=0;exitDy=0;entryX=0;entryY=0.2119047619047619;entryDx=0;entryDy=3;entryPerimeter=0;fontFamily=Helvetica;fontSize=12;fontColor=default;" edge="1" parent="1" source="KzDIzzD1oaYgctFefPa4-62" target="KzDIzzD1oaYgctFefPa4-50">
          <mxGeometry relative="1" as="geometry" />
        </mxCell>
        <mxCell id="KzDIzzD1oaYgctFefPa4-116" value="" style="endArrow=none;html=1;rounded=0;fontFamily=Helvetica;fontSize=12;fontColor=default;" edge="1" parent="1">
          <mxGeometry width="50" height="50" relative="1" as="geometry">
            <mxPoint x="247" y="829.5" as="sourcePoint" />
            <mxPoint x="257" y="819.5" as="targetPoint" />
          </mxGeometry>
        </mxCell>
        <mxCell id="KzDIzzD1oaYgctFefPa4-117" value="&lt;font style=&quot;font-size: 7px;&quot;&gt;8&lt;/font&gt;" style="text;html=1;align=center;verticalAlign=middle;resizable=0;points=[];autosize=1;strokeColor=none;fillColor=none;fontFamily=Helvetica;fontSize=12;fontColor=default;" vertex="1" parent="1">
          <mxGeometry x="235" y="800" width="30" height="30" as="geometry" />
        </mxCell>
        <mxCell id="KzDIzzD1oaYgctFefPa4-118" value="" style="endArrow=none;html=1;rounded=0;fontFamily=Helvetica;fontSize=12;fontColor=default;" edge="1" parent="1">
          <mxGeometry width="50" height="50" relative="1" as="geometry">
            <mxPoint x="307" y="829.5" as="sourcePoint" />
            <mxPoint x="317" y="819.5" as="targetPoint" />
          </mxGeometry>
        </mxCell>
        <mxCell id="KzDIzzD1oaYgctFefPa4-119" value="&lt;font style=&quot;font-size: 7px;&quot;&gt;8&lt;/font&gt;" style="text;html=1;align=center;verticalAlign=middle;resizable=0;points=[];autosize=1;strokeColor=none;fillColor=none;fontFamily=Helvetica;fontSize=12;fontColor=default;" vertex="1" parent="1">
          <mxGeometry x="295" y="800" width="30" height="30" as="geometry" />
        </mxCell>
        <mxCell id="KzDIzzD1oaYgctFefPa4-121" value="" style="endArrow=none;html=1;rounded=0;fontFamily=Helvetica;fontSize=12;fontColor=default;" edge="1" parent="1">
          <mxGeometry width="50" height="50" relative="1" as="geometry">
            <mxPoint x="277" y="874.5" as="sourcePoint" />
            <mxPoint x="287" y="864.5" as="targetPoint" />
          </mxGeometry>
        </mxCell>
        <mxCell id="KzDIzzD1oaYgctFefPa4-122" value="&lt;font style=&quot;font-size: 7px;&quot;&gt;8&lt;/font&gt;" style="text;html=1;align=center;verticalAlign=middle;resizable=0;points=[];autosize=1;strokeColor=none;fillColor=none;fontFamily=Helvetica;fontSize=12;fontColor=default;" vertex="1" parent="1">
          <mxGeometry x="265" y="845" width="30" height="30" as="geometry" />
        </mxCell>
        <mxCell id="KzDIzzD1oaYgctFefPa4-124" value="" style="group" vertex="1" connectable="0" parent="1">
          <mxGeometry x="263" y="966" width="30" height="30" as="geometry" />
        </mxCell>
        <mxCell id="KzDIzzD1oaYgctFefPa4-125" value="" style="endArrow=none;html=1;rounded=0;fontFamily=Helvetica;fontSize=12;fontColor=default;" edge="1" parent="KzDIzzD1oaYgctFefPa4-124">
          <mxGeometry width="50" height="50" relative="1" as="geometry">
            <mxPoint x="12" y="29.5" as="sourcePoint" />
            <mxPoint x="22" y="19.5" as="targetPoint" />
          </mxGeometry>
        </mxCell>
        <mxCell id="KzDIzzD1oaYgctFefPa4-126" value="&lt;font style=&quot;font-size: 7px;&quot;&gt;8&lt;/font&gt;" style="text;html=1;align=center;verticalAlign=middle;resizable=0;points=[];autosize=1;strokeColor=none;fillColor=none;fontFamily=Helvetica;fontSize=12;fontColor=default;" vertex="1" parent="KzDIzzD1oaYgctFefPa4-124">
          <mxGeometry width="30" height="30" as="geometry" />
        </mxCell>
        <mxCell id="KzDIzzD1oaYgctFefPa4-127" value="" style="group" vertex="1" connectable="0" parent="1">
          <mxGeometry x="230" y="1010.5" width="30" height="30" as="geometry" />
        </mxCell>
        <mxCell id="KzDIzzD1oaYgctFefPa4-128" value="" style="endArrow=none;html=1;rounded=0;fontFamily=Helvetica;fontSize=12;fontColor=default;" edge="1" parent="KzDIzzD1oaYgctFefPa4-127">
          <mxGeometry width="50" height="50" relative="1" as="geometry">
            <mxPoint x="12" y="29.5" as="sourcePoint" />
            <mxPoint x="22" y="19.5" as="targetPoint" />
          </mxGeometry>
        </mxCell>
        <mxCell id="KzDIzzD1oaYgctFefPa4-129" value="&lt;font style=&quot;font-size: 7px;&quot;&gt;8&lt;/font&gt;" style="text;html=1;align=center;verticalAlign=middle;resizable=0;points=[];autosize=1;strokeColor=none;fillColor=none;fontFamily=Helvetica;fontSize=12;fontColor=default;" vertex="1" parent="KzDIzzD1oaYgctFefPa4-127">
          <mxGeometry width="30" height="30" as="geometry" />
        </mxCell>
        <mxCell id="KzDIzzD1oaYgctFefPa4-133" value="" style="group" vertex="1" connectable="0" parent="1">
          <mxGeometry x="294" y="1012" width="30" height="30" as="geometry" />
        </mxCell>
        <mxCell id="KzDIzzD1oaYgctFefPa4-134" value="" style="endArrow=none;html=1;rounded=0;fontFamily=Helvetica;fontSize=12;fontColor=default;" edge="1" parent="KzDIzzD1oaYgctFefPa4-133">
          <mxGeometry width="50" height="50" relative="1" as="geometry">
            <mxPoint x="12" y="29.5" as="sourcePoint" />
            <mxPoint x="22" y="19.5" as="targetPoint" />
          </mxGeometry>
        </mxCell>
        <mxCell id="KzDIzzD1oaYgctFefPa4-135" value="&lt;font style=&quot;font-size: 7px;&quot;&gt;8&lt;/font&gt;" style="text;html=1;align=center;verticalAlign=middle;resizable=0;points=[];autosize=1;strokeColor=none;fillColor=none;fontFamily=Helvetica;fontSize=12;fontColor=default;" vertex="1" parent="KzDIzzD1oaYgctFefPa4-133">
          <mxGeometry width="30" height="30" as="geometry" />
        </mxCell>
        <mxCell id="KzDIzzD1oaYgctFefPa4-136" value="" style="group" vertex="1" connectable="0" parent="1">
          <mxGeometry x="265" y="1056" width="30" height="30" as="geometry" />
        </mxCell>
        <mxCell id="KzDIzzD1oaYgctFefPa4-137" value="" style="endArrow=none;html=1;rounded=0;fontFamily=Helvetica;fontSize=12;fontColor=default;" edge="1" parent="KzDIzzD1oaYgctFefPa4-136">
          <mxGeometry width="50" height="50" relative="1" as="geometry">
            <mxPoint x="12" y="29.5" as="sourcePoint" />
            <mxPoint x="22" y="19.5" as="targetPoint" />
          </mxGeometry>
        </mxCell>
        <mxCell id="KzDIzzD1oaYgctFefPa4-138" value="&lt;font style=&quot;font-size: 7px;&quot;&gt;8&lt;/font&gt;" style="text;html=1;align=center;verticalAlign=middle;resizable=0;points=[];autosize=1;strokeColor=none;fillColor=none;fontFamily=Helvetica;fontSize=12;fontColor=default;" vertex="1" parent="KzDIzzD1oaYgctFefPa4-136">
          <mxGeometry width="30" height="30" as="geometry" />
        </mxCell>
        <mxCell id="KzDIzzD1oaYgctFefPa4-139" value="" style="group" vertex="1" connectable="0" parent="1">
          <mxGeometry x="264" y="1175" width="30" height="30" as="geometry" />
        </mxCell>
        <mxCell id="KzDIzzD1oaYgctFefPa4-140" value="" style="endArrow=none;html=1;rounded=0;fontFamily=Helvetica;fontSize=12;fontColor=default;" edge="1" parent="KzDIzzD1oaYgctFefPa4-139">
          <mxGeometry width="50" height="50" relative="1" as="geometry">
            <mxPoint x="12" y="29.5" as="sourcePoint" />
            <mxPoint x="22" y="19.5" as="targetPoint" />
          </mxGeometry>
        </mxCell>
        <mxCell id="KzDIzzD1oaYgctFefPa4-141" value="&lt;font style=&quot;font-size: 7px;&quot;&gt;8&lt;/font&gt;" style="text;html=1;align=center;verticalAlign=middle;resizable=0;points=[];autosize=1;strokeColor=none;fillColor=none;fontFamily=Helvetica;fontSize=12;fontColor=default;" vertex="1" parent="KzDIzzD1oaYgctFefPa4-139">
          <mxGeometry width="30" height="30" as="geometry" />
        </mxCell>
        <mxCell id="KzDIzzD1oaYgctFefPa4-173" value="" style="group" vertex="1" connectable="0" parent="1">
          <mxGeometry x="348" y="958" width="40" height="34" as="geometry" />
        </mxCell>
        <mxCell id="KzDIzzD1oaYgctFefPa4-174" value="" style="endArrow=none;html=1;rounded=0;fontFamily=Helvetica;fontSize=12;fontColor=default;" edge="1" parent="KzDIzzD1oaYgctFefPa4-173">
          <mxGeometry width="50" height="50" relative="1" as="geometry">
            <mxPoint x="12" y="29.5" as="sourcePoint" />
            <mxPoint x="22" y="19.5" as="targetPoint" />
          </mxGeometry>
        </mxCell>
        <mxCell id="KzDIzzD1oaYgctFefPa4-177" value="&lt;span style=&quot;font-size: 7px;&quot;&gt;8&lt;/span&gt;" style="text;html=1;align=center;verticalAlign=middle;resizable=0;points=[];autosize=1;strokeColor=none;fillColor=none;fontFamily=Helvetica;fontSize=12;fontColor=default;" vertex="1" parent="KzDIzzD1oaYgctFefPa4-173">
          <mxGeometry x="7" y="9" width="30" height="30" as="geometry" />
        </mxCell>
        <mxCell id="KzDIzzD1oaYgctFefPa4-178" value="" style="group" vertex="1" connectable="0" parent="1">
          <mxGeometry x="400" y="880" width="30" height="30" as="geometry" />
        </mxCell>
        <mxCell id="KzDIzzD1oaYgctFefPa4-179" value="" style="endArrow=none;html=1;rounded=0;fontFamily=Helvetica;fontSize=12;fontColor=default;" edge="1" parent="KzDIzzD1oaYgctFefPa4-178">
          <mxGeometry width="50" height="50" relative="1" as="geometry">
            <mxPoint x="12" y="25.5" as="sourcePoint" />
            <mxPoint x="22" y="15.5" as="targetPoint" />
          </mxGeometry>
        </mxCell>
        <mxCell id="KzDIzzD1oaYgctFefPa4-180" value="&lt;font style=&quot;font-size: 7px;&quot;&gt;8&lt;/font&gt;" style="text;html=1;align=center;verticalAlign=middle;resizable=1;points=[];autosize=1;strokeColor=none;fillColor=none;fontFamily=Helvetica;fontSize=12;fontColor=default;movable=1;rotatable=1;deletable=1;editable=1;locked=0;connectable=1;" vertex="1" parent="KzDIzzD1oaYgctFefPa4-178">
          <mxGeometry width="30" height="30" as="geometry" />
        </mxCell>
        <mxCell id="KzDIzzD1oaYgctFefPa4-181" value="" style="group" vertex="1" connectable="0" parent="1">
          <mxGeometry x="400" y="892" width="30" height="30" as="geometry" />
        </mxCell>
        <mxCell id="KzDIzzD1oaYgctFefPa4-182" value="" style="endArrow=none;html=1;rounded=0;fontFamily=Helvetica;fontSize=12;fontColor=default;" edge="1" parent="KzDIzzD1oaYgctFefPa4-181">
          <mxGeometry width="50" height="50" relative="1" as="geometry">
            <mxPoint x="12" y="25.5" as="sourcePoint" />
            <mxPoint x="22" y="15.5" as="targetPoint" />
          </mxGeometry>
        </mxCell>
        <mxCell id="KzDIzzD1oaYgctFefPa4-183" value="&lt;font style=&quot;font-size: 7px;&quot;&gt;8&lt;/font&gt;" style="text;html=1;align=center;verticalAlign=middle;resizable=1;points=[];autosize=1;strokeColor=none;fillColor=none;fontFamily=Helvetica;fontSize=12;fontColor=default;movable=1;rotatable=1;deletable=1;editable=1;locked=0;connectable=1;" vertex="1" parent="KzDIzzD1oaYgctFefPa4-181">
          <mxGeometry width="30" height="30" as="geometry" />
        </mxCell>
        <mxCell id="KzDIzzD1oaYgctFefPa4-184" value="" style="group" vertex="1" connectable="0" parent="1">
          <mxGeometry x="400" y="918" width="30" height="30" as="geometry" />
        </mxCell>
        <mxCell id="KzDIzzD1oaYgctFefPa4-185" value="" style="endArrow=none;html=1;rounded=0;fontFamily=Helvetica;fontSize=12;fontColor=default;" edge="1" parent="KzDIzzD1oaYgctFefPa4-184">
          <mxGeometry width="50" height="50" relative="1" as="geometry">
            <mxPoint x="12" y="25.5" as="sourcePoint" />
            <mxPoint x="22" y="15.5" as="targetPoint" />
          </mxGeometry>
        </mxCell>
        <mxCell id="KzDIzzD1oaYgctFefPa4-186" value="&lt;font style=&quot;font-size: 7px;&quot;&gt;8&lt;/font&gt;" style="text;html=1;align=center;verticalAlign=middle;resizable=1;points=[];autosize=1;strokeColor=none;fillColor=none;fontFamily=Helvetica;fontSize=12;fontColor=default;movable=1;rotatable=1;deletable=1;editable=1;locked=0;connectable=1;" vertex="1" parent="KzDIzzD1oaYgctFefPa4-184">
          <mxGeometry width="30" height="30" as="geometry" />
        </mxCell>
        <mxCell id="KzDIzzD1oaYgctFefPa4-187" value="" style="group" vertex="1" connectable="0" parent="1">
          <mxGeometry x="400" y="931" width="30" height="30" as="geometry" />
        </mxCell>
        <mxCell id="KzDIzzD1oaYgctFefPa4-188" value="" style="endArrow=none;html=1;rounded=0;fontFamily=Helvetica;fontSize=12;fontColor=default;" edge="1" parent="KzDIzzD1oaYgctFefPa4-187">
          <mxGeometry width="50" height="50" relative="1" as="geometry">
            <mxPoint x="12" y="25.5" as="sourcePoint" />
            <mxPoint x="22" y="15.5" as="targetPoint" />
          </mxGeometry>
        </mxCell>
        <mxCell id="KzDIzzD1oaYgctFefPa4-189" value="&lt;font style=&quot;font-size: 7px;&quot;&gt;8&lt;/font&gt;" style="text;html=1;align=center;verticalAlign=middle;resizable=1;points=[];autosize=1;strokeColor=none;fillColor=none;fontFamily=Helvetica;fontSize=12;fontColor=default;movable=1;rotatable=1;deletable=1;editable=1;locked=0;connectable=1;" vertex="1" parent="KzDIzzD1oaYgctFefPa4-187">
          <mxGeometry width="30" height="30" as="geometry" />
        </mxCell>
        <mxCell id="KzDIzzD1oaYgctFefPa4-190" value="" style="group" vertex="1" connectable="0" parent="1">
          <mxGeometry x="727" y="947" width="30" height="30" as="geometry" />
        </mxCell>
        <mxCell id="KzDIzzD1oaYgctFefPa4-191" value="" style="endArrow=none;html=1;rounded=0;fontFamily=Helvetica;fontSize=12;fontColor=default;" edge="1" parent="KzDIzzD1oaYgctFefPa4-190">
          <mxGeometry width="50" height="50" relative="1" as="geometry">
            <mxPoint x="12" y="25.5" as="sourcePoint" />
            <mxPoint x="22" y="15.5" as="targetPoint" />
          </mxGeometry>
        </mxCell>
        <mxCell id="KzDIzzD1oaYgctFefPa4-192" value="&lt;font style=&quot;font-size: 7px;&quot;&gt;8&lt;/font&gt;" style="text;html=1;align=center;verticalAlign=middle;resizable=1;points=[];autosize=1;strokeColor=none;fillColor=none;fontFamily=Helvetica;fontSize=12;fontColor=default;movable=1;rotatable=1;deletable=1;editable=1;locked=0;connectable=1;" vertex="1" parent="KzDIzzD1oaYgctFefPa4-190">
          <mxGeometry width="30" height="30" as="geometry" />
        </mxCell>
        <mxCell id="KzDIzzD1oaYgctFefPa4-193" value="8bit&lt;br&gt;DFF" style="text;html=1;align=center;verticalAlign=middle;resizable=0;points=[];autosize=1;strokeColor=none;fillColor=none;fontFamily=Helvetica;fontSize=12;fontColor=default;" vertex="1" parent="1">
          <mxGeometry x="655" y="967.5" width="50" height="40" as="geometry" />
        </mxCell>
        <mxCell id="KzDIzzD1oaYgctFefPa4-194" value="" style="group" vertex="1" connectable="0" parent="1">
          <mxGeometry x="348" y="1167" width="40" height="34" as="geometry" />
        </mxCell>
        <mxCell id="KzDIzzD1oaYgctFefPa4-195" value="" style="endArrow=none;html=1;rounded=0;fontFamily=Helvetica;fontSize=12;fontColor=default;" edge="1" parent="KzDIzzD1oaYgctFefPa4-194">
          <mxGeometry width="50" height="50" relative="1" as="geometry">
            <mxPoint x="12" y="29.5" as="sourcePoint" />
            <mxPoint x="22" y="19.5" as="targetPoint" />
          </mxGeometry>
        </mxCell>
        <mxCell id="KzDIzzD1oaYgctFefPa4-196" value="&lt;span style=&quot;font-size: 7px;&quot;&gt;8&lt;/span&gt;" style="text;html=1;align=center;verticalAlign=middle;resizable=0;points=[];autosize=1;strokeColor=none;fillColor=none;fontFamily=Helvetica;fontSize=12;fontColor=default;" vertex="1" parent="KzDIzzD1oaYgctFefPa4-194">
          <mxGeometry x="7" y="9" width="30" height="30" as="geometry" />
        </mxCell>
        <mxCell id="KzDIzzD1oaYgctFefPa4-197" value="" style="group" vertex="1" connectable="0" parent="1">
          <mxGeometry x="428" y="905" width="30" height="30" as="geometry" />
        </mxCell>
        <mxCell id="KzDIzzD1oaYgctFefPa4-198" value="" style="endArrow=none;html=1;rounded=0;fontFamily=Helvetica;fontSize=12;fontColor=default;" edge="1" parent="KzDIzzD1oaYgctFefPa4-197">
          <mxGeometry width="50" height="50" relative="1" as="geometry">
            <mxPoint x="12" y="25.5" as="sourcePoint" />
            <mxPoint x="22" y="15.5" as="targetPoint" />
          </mxGeometry>
        </mxCell>
        <mxCell id="KzDIzzD1oaYgctFefPa4-199" value="&lt;font style=&quot;font-size: 7px;&quot;&gt;8&lt;/font&gt;" style="text;html=1;align=center;verticalAlign=middle;resizable=1;points=[];autosize=1;strokeColor=none;fillColor=none;fontFamily=Helvetica;fontSize=12;fontColor=default;movable=1;rotatable=1;deletable=1;editable=1;locked=0;connectable=1;" vertex="1" parent="KzDIzzD1oaYgctFefPa4-197">
          <mxGeometry width="30" height="30" as="geometry" />
        </mxCell>
        <mxCell id="KzDIzzD1oaYgctFefPa4-200" value="" style="group" vertex="1" connectable="0" parent="1">
          <mxGeometry x="427" y="944" width="30" height="40" as="geometry" />
        </mxCell>
        <mxCell id="KzDIzzD1oaYgctFefPa4-201" value="" style="endArrow=none;html=1;rounded=0;fontFamily=Helvetica;fontSize=12;fontColor=default;" edge="1" parent="KzDIzzD1oaYgctFefPa4-200">
          <mxGeometry width="50" height="50" relative="1" as="geometry">
            <mxPoint x="12" y="25.5" as="sourcePoint" />
            <mxPoint x="22" y="15.5" as="targetPoint" />
          </mxGeometry>
        </mxCell>
        <mxCell id="KzDIzzD1oaYgctFefPa4-202" value="&lt;font style=&quot;font-size: 7px;&quot;&gt;8&lt;/font&gt;" style="text;html=1;align=center;verticalAlign=middle;resizable=1;points=[];autosize=1;strokeColor=none;fillColor=none;fontFamily=Helvetica;fontSize=12;fontColor=default;movable=1;rotatable=1;deletable=1;editable=1;locked=0;connectable=1;" vertex="1" parent="KzDIzzD1oaYgctFefPa4-200">
          <mxGeometry width="30" height="30" as="geometry" />
        </mxCell>
        <mxCell id="KzDIzzD1oaYgctFefPa4-206" value="" style="group" vertex="1" connectable="0" parent="KzDIzzD1oaYgctFefPa4-200">
          <mxGeometry y="14" width="30" height="30" as="geometry" />
        </mxCell>
        <mxCell id="KzDIzzD1oaYgctFefPa4-207" value="" style="endArrow=none;html=1;rounded=0;fontFamily=Helvetica;fontSize=12;fontColor=default;" edge="1" parent="KzDIzzD1oaYgctFefPa4-206">
          <mxGeometry width="50" height="50" relative="1" as="geometry">
            <mxPoint x="12" y="25.5" as="sourcePoint" />
            <mxPoint x="22" y="15.5" as="targetPoint" />
          </mxGeometry>
        </mxCell>
        <mxCell id="KzDIzzD1oaYgctFefPa4-208" value="&lt;font style=&quot;font-size: 7px;&quot;&gt;8&lt;/font&gt;" style="text;html=1;align=center;verticalAlign=middle;resizable=1;points=[];autosize=1;strokeColor=none;fillColor=none;fontFamily=Helvetica;fontSize=12;fontColor=default;movable=1;rotatable=1;deletable=1;editable=1;locked=0;connectable=1;" vertex="1" parent="KzDIzzD1oaYgctFefPa4-206">
          <mxGeometry width="30" height="30" as="geometry" />
        </mxCell>
        <mxCell id="KzDIzzD1oaYgctFefPa4-209" value="" style="group" vertex="1" connectable="0" parent="1">
          <mxGeometry x="427" y="971" width="30" height="30" as="geometry" />
        </mxCell>
        <mxCell id="KzDIzzD1oaYgctFefPa4-210" value="" style="endArrow=none;html=1;rounded=0;fontFamily=Helvetica;fontSize=12;fontColor=default;" edge="1" parent="KzDIzzD1oaYgctFefPa4-209">
          <mxGeometry width="50" height="50" relative="1" as="geometry">
            <mxPoint x="12" y="25.5" as="sourcePoint" />
            <mxPoint x="22" y="15.5" as="targetPoint" />
          </mxGeometry>
        </mxCell>
        <mxCell id="KzDIzzD1oaYgctFefPa4-211" value="&lt;font style=&quot;font-size: 7px;&quot;&gt;8&lt;/font&gt;" style="text;html=1;align=center;verticalAlign=middle;resizable=1;points=[];autosize=1;strokeColor=none;fillColor=none;fontFamily=Helvetica;fontSize=12;fontColor=default;movable=1;rotatable=1;deletable=1;editable=1;locked=0;connectable=1;" vertex="1" parent="KzDIzzD1oaYgctFefPa4-209">
          <mxGeometry width="30" height="30" as="geometry" />
        </mxCell>
        <mxCell id="KzDIzzD1oaYgctFefPa4-212" value="" style="group" vertex="1" connectable="0" parent="1">
          <mxGeometry x="514" y="925" width="30" height="30" as="geometry" />
        </mxCell>
        <mxCell id="KzDIzzD1oaYgctFefPa4-213" value="" style="endArrow=none;html=1;rounded=0;fontFamily=Helvetica;fontSize=12;fontColor=default;" edge="1" parent="KzDIzzD1oaYgctFefPa4-212">
          <mxGeometry width="50" height="50" relative="1" as="geometry">
            <mxPoint x="12" y="25.5" as="sourcePoint" />
            <mxPoint x="22" y="15.5" as="targetPoint" />
          </mxGeometry>
        </mxCell>
        <mxCell id="KzDIzzD1oaYgctFefPa4-214" value="&lt;font style=&quot;font-size: 7px;&quot;&gt;8&lt;/font&gt;" style="text;html=1;align=center;verticalAlign=middle;resizable=1;points=[];autosize=1;strokeColor=none;fillColor=none;fontFamily=Helvetica;fontSize=12;fontColor=default;movable=1;rotatable=1;deletable=1;editable=1;locked=0;connectable=1;" vertex="1" parent="KzDIzzD1oaYgctFefPa4-212">
          <mxGeometry width="30" height="30" as="geometry" />
        </mxCell>
        <mxCell id="KzDIzzD1oaYgctFefPa4-215" value="" style="group" vertex="1" connectable="0" parent="1">
          <mxGeometry x="530" y="970" width="30" height="30" as="geometry" />
        </mxCell>
        <mxCell id="KzDIzzD1oaYgctFefPa4-216" value="" style="endArrow=none;html=1;rounded=0;fontFamily=Helvetica;fontSize=12;fontColor=default;" edge="1" parent="KzDIzzD1oaYgctFefPa4-215">
          <mxGeometry width="50" height="50" relative="1" as="geometry">
            <mxPoint x="12" y="25.5" as="sourcePoint" />
            <mxPoint x="22" y="15.5" as="targetPoint" />
          </mxGeometry>
        </mxCell>
        <mxCell id="KzDIzzD1oaYgctFefPa4-217" value="&lt;font style=&quot;font-size: 7px;&quot;&gt;8&lt;/font&gt;" style="text;html=1;align=center;verticalAlign=middle;resizable=1;points=[];autosize=1;strokeColor=none;fillColor=none;fontFamily=Helvetica;fontSize=12;fontColor=default;movable=1;rotatable=1;deletable=1;editable=1;locked=0;connectable=1;" vertex="1" parent="KzDIzzD1oaYgctFefPa4-215">
          <mxGeometry width="30" height="30" as="geometry" />
        </mxCell>
        <mxCell id="KzDIzzD1oaYgctFefPa4-218" value="" style="group" vertex="1" connectable="0" parent="1">
          <mxGeometry x="610" y="947" width="30" height="30" as="geometry" />
        </mxCell>
        <mxCell id="KzDIzzD1oaYgctFefPa4-219" value="" style="endArrow=none;html=1;rounded=0;fontFamily=Helvetica;fontSize=12;fontColor=default;" edge="1" parent="KzDIzzD1oaYgctFefPa4-218">
          <mxGeometry width="50" height="50" relative="1" as="geometry">
            <mxPoint x="12" y="25.5" as="sourcePoint" />
            <mxPoint x="22" y="15.5" as="targetPoint" />
          </mxGeometry>
        </mxCell>
        <mxCell id="KzDIzzD1oaYgctFefPa4-220" value="&lt;font style=&quot;font-size: 7px;&quot;&gt;8&lt;/font&gt;" style="text;html=1;align=center;verticalAlign=middle;resizable=1;points=[];autosize=1;strokeColor=none;fillColor=none;fontFamily=Helvetica;fontSize=12;fontColor=default;movable=1;rotatable=1;deletable=1;editable=1;locked=0;connectable=1;" vertex="1" parent="KzDIzzD1oaYgctFefPa4-218">
          <mxGeometry width="30" height="30" as="geometry" />
        </mxCell>
        <mxCell id="KzDIzzD1oaYgctFefPa4-224" value="" style="group" vertex="1" connectable="0" parent="1">
          <mxGeometry x="575" y="1128" width="40" height="39" as="geometry" />
        </mxCell>
        <mxCell id="KzDIzzD1oaYgctFefPa4-225" value="" style="endArrow=none;html=1;rounded=0;fontFamily=Helvetica;fontSize=12;fontColor=default;" edge="1" parent="KzDIzzD1oaYgctFefPa4-224">
          <mxGeometry width="50" height="50" relative="1" as="geometry">
            <mxPoint x="12" y="29.5" as="sourcePoint" />
            <mxPoint x="22" y="19.5" as="targetPoint" />
          </mxGeometry>
        </mxCell>
        <mxCell id="KzDIzzD1oaYgctFefPa4-226" value="&lt;span style=&quot;font-size: 7px;&quot;&gt;3&lt;/span&gt;" style="text;html=1;align=center;verticalAlign=middle;resizable=0;points=[];autosize=1;strokeColor=none;fillColor=none;fontFamily=Helvetica;fontSize=12;fontColor=default;" vertex="1" parent="KzDIzzD1oaYgctFefPa4-224">
          <mxGeometry x="7" y="9" width="30" height="30" as="geometry" />
        </mxCell>
        <mxCell id="KzDIzzD1oaYgctFefPa4-230" value="" style="group" vertex="1" connectable="0" parent="1">
          <mxGeometry x="600" y="1128" width="40" height="39" as="geometry" />
        </mxCell>
        <mxCell id="KzDIzzD1oaYgctFefPa4-231" value="" style="endArrow=none;html=1;rounded=0;fontFamily=Helvetica;fontSize=12;fontColor=default;" edge="1" parent="KzDIzzD1oaYgctFefPa4-230">
          <mxGeometry width="50" height="50" relative="1" as="geometry">
            <mxPoint x="12" y="29.5" as="sourcePoint" />
            <mxPoint x="22" y="19.5" as="targetPoint" />
          </mxGeometry>
        </mxCell>
        <mxCell id="KzDIzzD1oaYgctFefPa4-232" value="&lt;span style=&quot;font-size: 7px;&quot;&gt;3&lt;/span&gt;" style="text;html=1;align=center;verticalAlign=middle;resizable=0;points=[];autosize=1;strokeColor=none;fillColor=none;fontFamily=Helvetica;fontSize=12;fontColor=default;" vertex="1" parent="KzDIzzD1oaYgctFefPa4-230">
          <mxGeometry x="7" y="9" width="30" height="30" as="geometry" />
        </mxCell>
        <mxCell id="KzDIzzD1oaYgctFefPa4-233" value="" style="ellipse;whiteSpace=wrap;html=1;aspect=fixed;shadow=0;dashed=0;strokeColor=default;strokeWidth=1;align=center;verticalAlign=top;fontFamily=Helvetica;fontSize=12;fontColor=default;fillColor=#000000;" vertex="1" parent="1">
          <mxGeometry x="80" y="910" width="4" height="4" as="geometry" />
        </mxCell>
        <mxCell id="KzDIzzD1oaYgctFefPa4-235" value="" style="ellipse;whiteSpace=wrap;html=1;aspect=fixed;shadow=0;dashed=0;strokeColor=default;strokeWidth=1;align=center;verticalAlign=top;fontFamily=Helvetica;fontSize=12;fontColor=default;fillColor=#000000;" vertex="1" parent="1">
          <mxGeometry x="238" y="868" width="4" height="4" as="geometry" />
        </mxCell>
        <mxCell id="KzDIzzD1oaYgctFefPa4-236" value="" style="ellipse;whiteSpace=wrap;html=1;aspect=fixed;shadow=0;dashed=0;strokeColor=default;strokeWidth=1;align=center;verticalAlign=top;fontFamily=Helvetica;fontSize=12;fontColor=default;fillColor=#000000;" vertex="1" parent="1">
          <mxGeometry x="238" y="988" width="4" height="4" as="geometry" />
        </mxCell>
        <mxCell id="KzDIzzD1oaYgctFefPa4-237" value="" style="ellipse;whiteSpace=wrap;html=1;aspect=fixed;shadow=0;dashed=0;strokeColor=default;strokeWidth=1;align=center;verticalAlign=top;fontFamily=Helvetica;fontSize=12;fontColor=default;fillColor=#000000;" vertex="1" parent="1">
          <mxGeometry x="238" y="823" width="4" height="4" as="geometry" />
        </mxCell>
        <mxCell id="KzDIzzD1oaYgctFefPa4-238" value="" style="ellipse;whiteSpace=wrap;html=1;aspect=fixed;shadow=0;dashed=0;strokeColor=default;strokeWidth=1;align=center;verticalAlign=top;fontFamily=Helvetica;fontSize=12;fontColor=default;fillColor=#000000;" vertex="1" parent="1">
          <mxGeometry x="238" y="1033" width="4" height="4" as="geometry" />
        </mxCell>
        <mxCell id="KzDIzzD1oaYgctFefPa4-239" value="" style="ellipse;whiteSpace=wrap;html=1;aspect=fixed;shadow=0;dashed=0;strokeColor=default;strokeWidth=1;align=center;verticalAlign=top;fontFamily=Helvetica;fontSize=12;fontColor=default;fillColor=#000000;" vertex="1" parent="1">
          <mxGeometry x="238" y="1078" width="4" height="4" as="geometry" />
        </mxCell>
        <mxCell id="KzDIzzD1oaYgctFefPa4-240" value="" style="ellipse;whiteSpace=wrap;html=1;aspect=fixed;shadow=0;dashed=0;strokeColor=default;strokeWidth=1;align=center;verticalAlign=top;fontFamily=Helvetica;fontSize=12;fontColor=default;fillColor=#000000;" vertex="1" parent="1">
          <mxGeometry x="392" y="950" width="4" height="4" as="geometry" />
        </mxCell>
        <mxCell id="KzDIzzD1oaYgctFefPa4-241" value="" style="ellipse;whiteSpace=wrap;html=1;aspect=fixed;shadow=0;dashed=0;strokeColor=default;strokeWidth=1;align=center;verticalAlign=top;fontFamily=Helvetica;fontSize=12;fontColor=default;fillColor=#000000;" vertex="1" parent="1">
          <mxGeometry x="398" y="898" width="4" height="4" as="geometry" />
        </mxCell>
        <mxCell id="KzDIzzD1oaYgctFefPa4-242" value="" style="ellipse;whiteSpace=wrap;html=1;aspect=fixed;shadow=0;dashed=0;strokeColor=default;strokeWidth=1;align=center;verticalAlign=top;fontFamily=Helvetica;fontSize=12;fontColor=default;fillColor=#000000;" vertex="1" parent="1">
          <mxGeometry x="728" y="965" width="4" height="4" as="geometry" />
        </mxCell>
        <mxCell id="KzDIzzD1oaYgctFefPa4-245" value="&lt;font style=&quot;font-size: 10px;&quot;&gt;state&lt;/font&gt;" style="text;html=1;align=center;verticalAlign=middle;resizable=0;points=[];autosize=1;strokeColor=none;fillColor=none;fontFamily=Helvetica;fontSize=12;fontColor=default;" vertex="1" parent="1">
          <mxGeometry x="455" y="1015" width="50" height="30" as="geometry" />
        </mxCell>
        <mxCell id="KzDIzzD1oaYgctFefPa4-246" value="&lt;font style=&quot;font-size: 10px;&quot;&gt;[0]&lt;/font&gt;" style="text;html=1;align=center;verticalAlign=middle;resizable=0;points=[];autosize=1;strokeColor=none;fillColor=none;fontFamily=Helvetica;fontSize=12;fontColor=default;" vertex="1" parent="1">
          <mxGeometry x="485" y="1003" width="30" height="30" as="geometry" />
        </mxCell>
        <mxCell id="KzDIzzD1oaYgctFefPa4-247" value="&lt;font style=&quot;font-size: 10px;&quot;&gt;[1]&lt;/font&gt;" style="text;html=1;align=center;verticalAlign=middle;resizable=0;points=[];autosize=1;strokeColor=none;fillColor=none;fontFamily=Helvetica;fontSize=12;fontColor=default;" vertex="1" parent="1">
          <mxGeometry x="465" y="1003" width="30" height="30" as="geometry" />
        </mxCell>
        <mxCell id="KzDIzzD1oaYgctFefPa4-248" value="&lt;font style=&quot;font-size: 10px;&quot;&gt;[2]&lt;/font&gt;" style="text;html=1;align=center;verticalAlign=middle;resizable=0;points=[];autosize=1;strokeColor=none;fillColor=none;fontFamily=Helvetica;fontSize=12;fontColor=default;" vertex="1" parent="1">
          <mxGeometry x="445" y="1003" width="30" height="30" as="geometry" />
        </mxCell>
        <mxCell id="KzDIzzD1oaYgctFefPa4-251" value="" style="verticalLabelPosition=bottom;shadow=0;dashed=0;align=center;html=1;verticalAlign=top;shape=stencil(rVXBjoMgEP0aj7uxEG2vu269N9kfQEuVFIEgte3fL4hNiorauokeeAPz3gwzQwCTukQCByBEtcC5CuBPAECDJEEZ1TDQltKCu9AuGaqwRfQf/t7b0ykl4iOlXNg9tZL8jK/kqLrDhJVYEmWtV4ttwtYj3Afhl0bNB5OcM6Z1EM5qx/Jk184RYaovxXgWmqTCCkuLdopvzurerT5BZIEApK9Q7d+g2r5HdVhAtVkYFUw04ssuTDKUnwvJL+w4KlCa2hiUQneRsauoH/2EHg8rTE5c4gk5J0KprbGJpApkqm9geJgr3mDfjflEux4oYdgb9jIXUyLi9SKWuXBF7NanouvsVbnoRRJNdtC4DPj/+ZzpY417qk4P2rl6VfhmegxRUjBLl2Nmuv4xUp1R1zzty7hSvHKbMHJvYEb4Qu7DIu7tC9wjiQVxod+h796oGEyEFrWvVwv8AQ==);strokeColor=default;strokeWidth=1;fontFamily=Helvetica;fontSize=12;fontColor=default;fillColor=default;noLabel=0;movableLabel=0;" vertex="1" parent="1">
          <mxGeometry x="402" y="659.25" width="100" height="80" as="geometry" />
        </mxCell>
        <mxCell id="KzDIzzD1oaYgctFefPa4-252" value="8bit&lt;div&gt;2x1&lt;br&gt;Mux&lt;/div&gt;" style="shadow=0;dashed=0;align=center;html=1;strokeWidth=1;shape=mxgraph.electrical.abstract.mux2;whiteSpace=wrap;strokeColor=default;verticalAlign=middle;fontFamily=Helvetica;fontSize=12;fontColor=default;fillColor=default;" vertex="1" parent="1">
          <mxGeometry x="308" y="631.75" width="70" height="105" as="geometry" />
        </mxCell>
        <mxCell id="KzDIzzD1oaYgctFefPa4-253" style="edgeStyle=orthogonalEdgeStyle;rounded=0;orthogonalLoop=1;jettySize=auto;html=1;exitX=0;exitY=0.25;exitDx=0;exitDy=0;exitPerimeter=0;entryX=1;entryY=0.5;entryDx=0;entryDy=-5;entryPerimeter=0;fontFamily=Helvetica;fontSize=12;fontColor=default;endArrow=none;endFill=0;startArrow=none;startFill=0;" edge="1" parent="1" source="KzDIzzD1oaYgctFefPa4-251" target="KzDIzzD1oaYgctFefPa4-252">
          <mxGeometry relative="1" as="geometry" />
        </mxCell>
        <mxCell id="KzDIzzD1oaYgctFefPa4-254" value="&lt;font color=&quot;#3333ff&quot;&gt;clk&lt;/font&gt;" style="text;html=1;align=center;verticalAlign=middle;resizable=0;points=[];autosize=1;strokeColor=none;fillColor=none;fontFamily=Helvetica;fontSize=12;fontColor=default;" vertex="1" parent="1">
          <mxGeometry x="372" y="704.75" width="40" height="30" as="geometry" />
        </mxCell>
        <mxCell id="KzDIzzD1oaYgctFefPa4-256" value="state" style="text;html=1;align=center;verticalAlign=middle;resizable=0;points=[];autosize=1;strokeColor=none;fillColor=none;fontFamily=Helvetica;fontSize=12;fontColor=default;" vertex="1" parent="1">
          <mxGeometry x="493" y="663.25" width="50" height="30" as="geometry" />
        </mxCell>
        <mxCell id="KzDIzzD1oaYgctFefPa4-257" value="rst_n" style="text;html=1;align=center;verticalAlign=middle;resizable=0;points=[];autosize=1;strokeColor=none;fillColor=none;fontFamily=Helvetica;fontSize=12;fontColor=default;" vertex="1" parent="1">
          <mxGeometry x="318" y="728.25" width="50" height="30" as="geometry" />
        </mxCell>
        <mxCell id="KzDIzzD1oaYgctFefPa4-258" value="A&lt;sub&gt;&lt;font style=&quot;font-size: 5px;&quot;&gt;P&lt;/font&gt;&lt;/sub&gt;" style="text;html=1;align=center;verticalAlign=middle;resizable=0;points=[];autosize=1;strokeColor=none;fillColor=none;fontFamily=Helvetica;fontSize=12;fontColor=default;" vertex="1" parent="1">
          <mxGeometry x="284" y="642.25" width="30" height="30" as="geometry" />
        </mxCell>
        <mxCell id="KzDIzzD1oaYgctFefPa4-259" value="next_state" style="text;html=1;align=center;verticalAlign=middle;resizable=0;points=[];autosize=1;strokeColor=none;fillColor=none;fontFamily=Helvetica;fontSize=12;fontColor=default;" vertex="1" parent="1">
          <mxGeometry x="238" y="685.25" width="80" height="30" as="geometry" />
        </mxCell>
        <mxCell id="KzDIzzD1oaYgctFefPa4-260" value="" style="group" vertex="1" connectable="0" parent="1">
          <mxGeometry x="170" y="680" width="30" height="30" as="geometry" />
        </mxCell>
        <mxCell id="KzDIzzD1oaYgctFefPa4-261" value="" style="endArrow=none;html=1;rounded=0;fontFamily=Helvetica;fontSize=12;fontColor=default;" edge="1" parent="KzDIzzD1oaYgctFefPa4-260">
          <mxGeometry width="50" height="50" relative="1" as="geometry">
            <mxPoint x="12" y="25.5" as="sourcePoint" />
            <mxPoint x="22" y="15.5" as="targetPoint" />
          </mxGeometry>
        </mxCell>
        <mxCell id="KzDIzzD1oaYgctFefPa4-262" value="&lt;font style=&quot;font-size: 7px;&quot;&gt;3&lt;/font&gt;" style="text;html=1;align=center;verticalAlign=middle;resizable=1;points=[];autosize=1;strokeColor=none;fillColor=none;fontFamily=Helvetica;fontSize=12;fontColor=default;movable=1;rotatable=1;deletable=1;editable=1;locked=0;connectable=1;" vertex="1" parent="KzDIzzD1oaYgctFefPa4-260">
          <mxGeometry width="30" height="30" as="geometry" />
        </mxCell>
        <mxCell id="KzDIzzD1oaYgctFefPa4-263" value="" style="group" vertex="1" connectable="0" parent="1">
          <mxGeometry x="296" y="636.25" width="30" height="30" as="geometry" />
        </mxCell>
        <mxCell id="KzDIzzD1oaYgctFefPa4-264" value="" style="endArrow=none;html=1;rounded=0;fontFamily=Helvetica;fontSize=12;fontColor=default;" edge="1" parent="KzDIzzD1oaYgctFefPa4-263">
          <mxGeometry width="50" height="50" relative="1" as="geometry">
            <mxPoint x="12" y="25.5" as="sourcePoint" />
            <mxPoint x="22" y="15.5" as="targetPoint" />
          </mxGeometry>
        </mxCell>
        <mxCell id="KzDIzzD1oaYgctFefPa4-265" value="&lt;font style=&quot;font-size: 7px;&quot;&gt;3&lt;/font&gt;" style="text;html=1;align=center;verticalAlign=middle;resizable=1;points=[];autosize=1;strokeColor=none;fillColor=none;fontFamily=Helvetica;fontSize=12;fontColor=default;movable=1;rotatable=1;deletable=1;editable=1;locked=0;connectable=1;" vertex="1" parent="KzDIzzD1oaYgctFefPa4-263">
          <mxGeometry width="30" height="30" as="geometry" />
        </mxCell>
        <mxCell id="KzDIzzD1oaYgctFefPa4-266" value="" style="group" vertex="1" connectable="0" parent="1">
          <mxGeometry x="296" y="681.25" width="30" height="30" as="geometry" />
        </mxCell>
        <mxCell id="KzDIzzD1oaYgctFefPa4-267" value="" style="endArrow=none;html=1;rounded=0;fontFamily=Helvetica;fontSize=12;fontColor=default;" edge="1" parent="KzDIzzD1oaYgctFefPa4-266">
          <mxGeometry width="50" height="50" relative="1" as="geometry">
            <mxPoint x="12" y="25.5" as="sourcePoint" />
            <mxPoint x="22" y="15.5" as="targetPoint" />
          </mxGeometry>
        </mxCell>
        <mxCell id="KzDIzzD1oaYgctFefPa4-268" value="&lt;font style=&quot;font-size: 7px;&quot;&gt;3&lt;/font&gt;" style="text;html=1;align=center;verticalAlign=middle;resizable=1;points=[];autosize=1;strokeColor=none;fillColor=none;fontFamily=Helvetica;fontSize=12;fontColor=default;movable=1;rotatable=1;deletable=1;editable=1;locked=0;connectable=1;" vertex="1" parent="KzDIzzD1oaYgctFefPa4-266">
          <mxGeometry width="30" height="30" as="geometry" />
        </mxCell>
        <mxCell id="KzDIzzD1oaYgctFefPa4-269" value="" style="group" vertex="1" connectable="0" parent="1">
          <mxGeometry x="377" y="658.25" width="30" height="30" as="geometry" />
        </mxCell>
        <mxCell id="KzDIzzD1oaYgctFefPa4-270" value="" style="endArrow=none;html=1;rounded=0;fontFamily=Helvetica;fontSize=12;fontColor=default;" edge="1" parent="KzDIzzD1oaYgctFefPa4-269">
          <mxGeometry width="50" height="50" relative="1" as="geometry">
            <mxPoint x="12" y="25.5" as="sourcePoint" />
            <mxPoint x="22" y="15.5" as="targetPoint" />
          </mxGeometry>
        </mxCell>
        <mxCell id="KzDIzzD1oaYgctFefPa4-271" value="&lt;font style=&quot;font-size: 7px;&quot;&gt;3&lt;/font&gt;" style="text;html=1;align=center;verticalAlign=middle;resizable=1;points=[];autosize=1;strokeColor=none;fillColor=none;fontFamily=Helvetica;fontSize=12;fontColor=default;movable=1;rotatable=1;deletable=1;editable=1;locked=0;connectable=1;" vertex="1" parent="KzDIzzD1oaYgctFefPa4-269">
          <mxGeometry width="30" height="30" as="geometry" />
        </mxCell>
        <mxCell id="KzDIzzD1oaYgctFefPa4-272" value="" style="group" vertex="1" connectable="0" parent="1">
          <mxGeometry x="477" y="658.25" width="30" height="30" as="geometry" />
        </mxCell>
        <mxCell id="KzDIzzD1oaYgctFefPa4-273" value="" style="endArrow=none;html=1;rounded=0;fontFamily=Helvetica;fontSize=12;fontColor=default;" edge="1" parent="KzDIzzD1oaYgctFefPa4-272">
          <mxGeometry width="50" height="50" relative="1" as="geometry">
            <mxPoint x="12" y="25.5" as="sourcePoint" />
            <mxPoint x="22" y="15.5" as="targetPoint" />
          </mxGeometry>
        </mxCell>
        <mxCell id="KzDIzzD1oaYgctFefPa4-274" value="&lt;font style=&quot;font-size: 7px;&quot;&gt;3&lt;/font&gt;" style="text;html=1;align=center;verticalAlign=middle;resizable=1;points=[];autosize=1;strokeColor=none;fillColor=none;fontFamily=Helvetica;fontSize=12;fontColor=default;movable=1;rotatable=1;deletable=1;editable=1;locked=0;connectable=1;" vertex="1" parent="KzDIzzD1oaYgctFefPa4-272">
          <mxGeometry width="30" height="30" as="geometry" />
        </mxCell>
        <mxCell id="KzDIzzD1oaYgctFefPa4-275" value="&lt;div&gt;3bit&lt;/div&gt;8x1&lt;br&gt;Mux" style="shadow=0;dashed=0;align=center;html=1;strokeWidth=1;shape=mxgraph.electrical.abstract.mux2;whiteSpace=wrap;selectorPins=3;overflow=visible;fillOpacity=100;labelPadding=0;noLabel=0;snapToPoint=0;metaEdit=0;backgroundOutline=0;movableLabel=1;comic=0;enumerate=0;" vertex="1" parent="1">
          <mxGeometry x="303.5" y="1330" width="80" height="120" as="geometry" />
        </mxCell>
        <mxCell id="KzDIzzD1oaYgctFefPa4-280" value="&lt;font style=&quot;font-size: 10px;&quot;&gt;state&lt;/font&gt;" style="text;html=1;align=center;verticalAlign=middle;resizable=0;points=[];autosize=1;strokeColor=none;fillColor=none;fontFamily=Helvetica;fontSize=12;fontColor=default;" vertex="1" parent="1">
          <mxGeometry x="318.5" y="1454.7" width="50" height="30" as="geometry" />
        </mxCell>
        <mxCell id="KzDIzzD1oaYgctFefPa4-281" value="&lt;font style=&quot;font-size: 10px;&quot;&gt;[0]&lt;/font&gt;" style="text;html=1;align=center;verticalAlign=middle;resizable=0;points=[];autosize=1;strokeColor=none;fillColor=none;fontFamily=Helvetica;fontSize=12;fontColor=default;" vertex="1" parent="1">
          <mxGeometry x="348.5" y="1442.7" width="30" height="30" as="geometry" />
        </mxCell>
        <mxCell id="KzDIzzD1oaYgctFefPa4-282" value="&lt;font style=&quot;font-size: 10px;&quot;&gt;[1]&lt;/font&gt;" style="text;html=1;align=center;verticalAlign=middle;resizable=0;points=[];autosize=1;strokeColor=none;fillColor=none;fontFamily=Helvetica;fontSize=12;fontColor=default;" vertex="1" parent="1">
          <mxGeometry x="328.5" y="1442.7" width="30" height="30" as="geometry" />
        </mxCell>
        <mxCell id="KzDIzzD1oaYgctFefPa4-283" value="&lt;font style=&quot;font-size: 10px;&quot;&gt;[2]&lt;/font&gt;" style="text;html=1;align=center;verticalAlign=middle;resizable=0;points=[];autosize=1;strokeColor=none;fillColor=none;fontFamily=Helvetica;fontSize=12;fontColor=default;" vertex="1" parent="1">
          <mxGeometry x="308.5" y="1442.7" width="30" height="30" as="geometry" />
        </mxCell>
      </root>
    </mxGraphModel>
  </diagram>
</mxfile>
